<svg xmlns="http://www.w3.org/2000/svg" xmlns:xlink="http://www.w3.org/1999/xlink" viewBox="0 0 177.8 234.21"><defs><style>.cls-1,.cls-8,.cls-9{fill:none;}.cls-2{fill:#ff9e3e;}.cls-3{fill:#ffb850;}.cls-4{fill:#ffd67b;}.cls-5{fill:#d47535;}.cls-6{fill:#703b21;}.cls-7{fill:#f25d55;}.cls-8{stroke:#ff9e3e;}.cls-8,.cls-9{stroke-linecap:round;stroke-linejoin:round;stroke-width:2px;}.cls-9{stroke:#703b21;}.cls-10{clip-path:url(#clip-path);}.cls-11{fill:#fff;}</style><clipPath id="clip-path"><path class="cls-1" d="M97.16,93.54c0,9-9.46,25.15-21.12,25.15S54.93,102.54,54.93,93.54Z"/></clipPath></defs><g id="Layer_2" data-name="Layer 2"><g id="OBJECTS"><path class="cls-2" d="M108.42,193.36s4,2.06,4,2.09c-.55-1.23-.85-9.21-.22-10.5q2.28-4.63,5-9.06c11.49-19,27.47-37.23,51.29-37.89,3-.08,6.22,0,8.11-2.74,4.13-6.06-3.19-11.61-8.26-13.59-9-3.52-21.22.74-29.31,5.12-8.71,4.72-15.82,12-21.23,20.22C108.55,161.07,101.37,177.67,108.42,193.36Z"/><path class="cls-3" d="M128.68,195.32c0,29-23.51,28.55-52.51,28.55s-52.52.45-52.52-28.55S47.16,91.58,76.17,91.58,128.68,166.31,128.68,195.32Z"/><path class="cls-3" d="M86.31,22.14,78.84,27l2.81-4.48-8.88,5.75-1.85.29L75.67,24l-8.52,4L71,24.35,60.6,29.28l16.52.44.29-.47,4.36.12ZM65.8,29.33l.39-.37,1.7,0Z"/><ellipse class="cls-4" cx="76.42" cy="124.29" rx="26" ry="31.25"/><path class="cls-3" d="M98.13,19.71S84,22.84,82.49,39,92.75,28.82,92.75,28.82,90.44,26.06,98.13,19.71Z"/><path class="cls-3" d="M91,22.25S76.9,25.38,75.35,41.56s10.26-10.2,10.26-10.2S83.3,28.59,91,22.25Z"/><path class="cls-3" d="M71.06,18.82s-19.67,4.37-21.84,27S63.55,31.54,63.55,31.54,60.32,27.68,71.06,18.82Z"/><path class="cls-3" d="M75.21,20.58S55.54,25,53.37,47.54,67.7,33.29,67.7,33.29,64.47,29.44,75.21,20.58Z"/><path class="cls-3" d="M119.35,0S97,21.87,92.87,29.09c4.4,7.08,14.67,7.76,14.67,7.76L118.93,7.6Z"/><path class="cls-3" d="M127,53.15a119,119,0,0,1-20.59-14.64l-1.46-1.32.15-2c.94-12,4-20.58,11.06-30.6L119.35,0l3.29,4.59C135,21.88,132.93,48.82,132.84,50l-.51,6.1Z"/><path class="cls-5" d="M128.85,49.63s2.2-26.42-9.46-42.71c-6.68,9.54-9.47,17.39-10.35,28.62A115.63,115.63,0,0,0,128.85,49.63Z"/><path class="cls-3" d="M31.55,0S53.92,21.87,58,29.09c-4.4,7.08-14.67,7.76-14.67,7.76L32,7.6Z"/><path class="cls-3" d="M24,53.15A119,119,0,0,0,44.54,38.51L46,37.19l-.15-2c-1-12-4.05-20.58-11.06-30.6L31.55,0,28.26,4.59C15.88,21.88,18,48.82,18.06,50l.51,6.1Z"/><path class="cls-5" d="M22,49.63s-2.2-26.42,9.47-42.71C38.19,16.46,41,24.31,41.86,35.54A115.49,115.49,0,0,1,22,49.63Z"/><ellipse class="cls-3" cx="75.08" cy="77.21" rx="67.67" ry="50.67"/><circle class="cls-2" cx="49.06" cy="59.31" r="17.5" transform="translate(-17.3 98.3) rotate(-80.83)"/><path class="cls-6" d="M79.3,78.54c2,0,2.85,1.33,1.84,3.08l-3.88,6.67c-1,1.76-2.67,1.73-3.68,0L69.7,81.63c-1-1.75-.18-3.09,1.84-3.09Z"/><path class="cls-7" d="M125.42,80.71c0,1.74-3.51,3.16-7.84,3.16s-7.83-1.42-7.83-3.16,3.51-3.16,7.83-3.16S125.42,79,125.42,80.71Z"/><path class="cls-7" d="M41.42,80.71c0,1.74-3.51,3.16-7.84,3.16s-7.83-1.42-7.83-3.16,3.51-3.16,7.83-3.16S41.42,79,41.42,80.71Z"/><path class="cls-8" d="M33.05,98.25S10.11,104.73,2.4,110.51"/><path class="cls-8" d="M33.05,92.82s-26.8.53-32,1.58"/><path class="cls-8" d="M118,98.25s22.94,6.48,30.64,12.26"/><path class="cls-8" d="M118,92.82s26.79.53,32.05,1.58"/><path class="cls-2" d="M61,234.21h0a7.69,7.69,0,0,1-7.67-7.67V173.31A7.69,7.69,0,0,1,61,165.65h0a7.69,7.69,0,0,1,7.66,7.66v53.23A7.69,7.69,0,0,1,61,234.21Z"/><path class="cls-2" d="M91.42,234.21h0a7.69,7.69,0,0,1-7.67-7.67V173.31a7.69,7.69,0,0,1,7.67-7.66h0a7.69,7.69,0,0,1,7.66,7.66v53.23A7.69,7.69,0,0,1,91.42,234.21Z"/><path class="cls-2" d="M114.69,224.88h0a7.7,7.7,0,0,1-5.11-9.57l2-6.6a7.7,7.7,0,0,1,9.56-5.11h0a7.7,7.7,0,0,1,5.12,9.56l-2,6.6A7.69,7.69,0,0,1,114.69,224.88Z"/><path class="cls-4" d="M120.87,218.21a3.8,3.8,0,1,1-2.53-4.73A3.8,3.8,0,0,1,120.87,218.21Z"/><circle class="cls-4" cx="115.9" cy="208.74" r="1.7"/><path class="cls-4" d="M124.27,211.27a1.69,1.69,0,1,1-1.13-2.11A1.7,1.7,0,0,1,124.27,211.27Z"/><path class="cls-4" d="M121.51,207.78a1.7,1.7,0,1,1-1.13-2.11A1.69,1.69,0,0,1,121.51,207.78Z"/><path class="cls-2" d="M36.81,224.88h0a7.69,7.69,0,0,0,5.11-9.57l-2-6.6a7.69,7.69,0,0,0-9.56-5.11h0a7.68,7.68,0,0,0-5.11,9.56l2,6.6A7.69,7.69,0,0,0,36.81,224.88Z"/><path class="cls-4" d="M30.63,218.21a3.8,3.8,0,1,0,2.54-4.73A3.8,3.8,0,0,0,30.63,218.21Z"/><circle class="cls-4" cx="35.6" cy="208.74" r="1.7"/><circle class="cls-4" cx="28.85" cy="210.78" r="1.7"/><path class="cls-4" d="M30,207.78a1.7,1.7,0,1,0,1.14-2.11A1.69,1.69,0,0,0,30,207.78Z"/><path class="cls-4" d="M176.59,135.26c4.13-6.06-3.19-11.61-8.26-13.59a18,18,0,0,0-3-.86,12.35,12.35,0,0,0,1.38,17.28c.59,0,1.19-.07,1.79-.09C171.43,137.92,174.7,138,176.59,135.26Z"/><polyline class="cls-9" points="105.87 54.33 97.98 62.22 104.67 68.92"/><polyline class="cls-9" points="44.98 53.33 52.87 61.22 46.17 67.92"/><path class="cls-6" d="M97.16,93.54c0,9-9.46,25.15-21.12,25.15S54.93,102.54,54.93,93.54Z"/><g class="cls-10"><path class="cls-7" d="M54.93,127.54c0-9,9.45-25.14,21.11-25.14s21.12,16.14,21.12,25.14Z"/><path class="cls-11" d="M56.73,92.32s1.59,6.85,3.18,6.85,4-7.59,4-7.59Z"/><path class="cls-11" d="M94.94,92.32s-1.59,6.85-3.18,6.85-4-7.59-4-7.59Z"/></g><line class="cls-9" x1="75.42" y1="87.54" x2="75.42" y2="94.54"/></g></g></svg>