<svg xmlns="http://www.w3.org/2000/svg" viewBox="0 0 151.09 127.87"><defs><style>.cls-1{fill:#ffb850;}.cls-2{fill:#d47535;}.cls-3{fill:#ff9e3e;}.cls-4{fill:#703b21;}.cls-5{fill:#fff;}.cls-6,.cls-8{fill:none;stroke-linecap:round;stroke-width:2px;}.cls-6{stroke:#703b21;stroke-miterlimit:10;}.cls-7{fill:#f25d55;}.cls-8{stroke:#ff9e3e;stroke-linejoin:round;}</style></defs><g id="Layer_2" data-name="Layer 2"><g id="OBJECTS"><path class="cls-1" d="M86.31,22.14,78.84,27l2.81-4.48-8.88,5.75-1.85.29L75.67,24l-8.52,4L71,24.35,60.6,29.28l16.52.44.29-.47,4.36.12ZM65.8,29.33l.39-.37,1.7,0Z"/><path class="cls-1" d="M98.13,19.71S84,22.84,82.49,39,92.75,28.82,92.75,28.82,90.44,26.06,98.13,19.71Z"/><path class="cls-1" d="M91,22.25S76.9,25.38,75.35,41.56s10.26-10.2,10.26-10.2S83.3,28.59,91,22.25Z"/><path class="cls-1" d="M71.06,18.82s-19.67,4.37-21.84,27S63.55,31.54,63.55,31.54,60.32,27.68,71.06,18.82Z"/><path class="cls-1" d="M75.21,20.58S55.54,25,53.37,47.54,67.7,33.29,67.7,33.29,64.47,29.44,75.21,20.58Z"/><path class="cls-1" d="M119.35,0S97,21.87,92.87,29.09c4.4,7.08,14.67,7.76,14.67,7.76L118.93,7.6Z"/><path class="cls-1" d="M127,53.15a119,119,0,0,1-20.59-14.64l-1.46-1.32.15-2c.94-12,4-20.58,11.06-30.6L119.35,0l3.29,4.59C135,21.88,132.93,48.82,132.84,50l-.51,6.1Z"/><path class="cls-2" d="M128.85,49.63s2.2-26.42-9.46-42.71c-6.68,9.54-9.47,17.39-10.35,28.62A115.63,115.63,0,0,0,128.85,49.63Z"/><path class="cls-1" d="M31.55,0S53.92,21.87,58,29.09c-4.4,7.08-14.67,7.76-14.67,7.76L32,7.6Z"/><path class="cls-1" d="M24,53.15A119,119,0,0,0,44.54,38.51L46,37.19l-.15-2c-1-12-4.05-20.58-11.06-30.6L31.55,0,28.26,4.59C15.88,21.88,18,48.82,18.06,50l.51,6.1Z"/><path class="cls-2" d="M22,49.63s-2.2-26.42,9.47-42.71C38.19,16.46,41,24.31,41.86,35.54A115.49,115.49,0,0,1,22,49.63Z"/><ellipse class="cls-1" cx="75.08" cy="77.21" rx="67.67" ry="50.67"/><circle class="cls-3" cx="49.06" cy="59.31" r="17.5" transform="translate(-17.17 98.52) rotate(-81.02)"/><ellipse class="cls-4" cx="48.17" cy="64.54" rx="5.84" ry="9.67"/><ellipse class="cls-5" cx="45.17" cy="61.54" rx="1.76" ry="2.92"/><path class="cls-6" d="M92.54,97.42a8.5,8.5,0,0,1-17,0"/><path class="cls-6" d="M58.54,97.42a8.5,8.5,0,1,0,17,0"/><ellipse class="cls-4" cx="103.17" cy="64.54" rx="5.84" ry="9.67"/><path class="cls-4" d="M79.3,87.54c2,0,2.85,1.33,1.84,3.08l-3.88,6.67c-1,1.76-2.67,1.73-3.68,0L69.7,90.63c-1-1.75-.18-3.09,1.84-3.09Z"/><path class="cls-7" d="M125.42,80.71c0,1.74-3.51,3.16-7.84,3.16s-7.83-1.42-7.83-3.16,3.51-3.16,7.83-3.16S125.42,79,125.42,80.71Z"/><path class="cls-7" d="M41.42,80.71c0,1.74-3.51,3.16-7.84,3.16s-7.83-1.42-7.83-3.16,3.51-3.16,7.83-3.16S41.42,79,41.42,80.71Z"/><ellipse class="cls-5" cx="100.17" cy="61.54" rx="1.76" ry="2.92"/><path class="cls-8" d="M33.05,98.25S10.11,104.73,2.4,110.51"/><path class="cls-8" d="M33.05,92.82s-26.8.53-32,1.58"/><path class="cls-8" d="M118,98.25s22.94,6.48,30.64,12.26"/><path class="cls-8" d="M118,92.82s26.79.53,32.05,1.58"/></g></g></svg>