<svg xmlns="http://www.w3.org/2000/svg" viewBox="0 0 94.57 185.49"><defs><style>.cls-1{fill:#5f949b;}.cls-2{fill:#6fadb9;}.cls-3{opacity:0.1;}</style></defs><g id="Layer_2" data-name="Layer 2"><g id="objects"><path class="cls-1" d="M80.21,129.36S104,110.77,90.36,78.11c0,0-5,15.36-19,15.36Z"/><path class="cls-1" d="M14.37,129.36S-9.41,110.77,4.22,78.11c0,0,5,15.36,19,15.36Z"/><path class="cls-1" d="M48,24C48,1.37,73.92,0,73.92,0c4.34,28.32-19.69,34.44-19.69,51.36H48Z"/><path class="cls-1" d="M48,24C48,1.37,22.08,0,22.08,0,17.74,28.32,41.77,34.44,41.77,51.36H48Z"/><path class="cls-2" d="M80.45,142a83.55,83.55,0,0,0,1.27-14.63c0-32.68-27.49-57-27.49-76H41.77c0,19-27.49,43.3-27.49,76A83.55,83.55,0,0,0,15.55,142,67.94,67.94,0,0,1,80.45,142Z"/><path class="cls-1" d="M15.55,142c5.26,29.67,25.2,43.52,25.2,43.52L48,170.24l7.25,15.25S75.19,171.64,80.45,142A67.94,67.94,0,0,0,15.55,142Z"/><path class="cls-1" d="M74.44,124.63a6.61,6.61,0,1,0-13.22,0Z"/><path class="cls-1" d="M61.22,124.63a6.61,6.61,0,1,0-13.22,0Z"/><path class="cls-1" d="M48,124.63a6.61,6.61,0,1,0-13.22,0Z"/><path class="cls-1" d="M34.78,124.63a6.61,6.61,0,1,0-13.22,0Z"/><path class="cls-1" d="M74.44,114a6.61,6.61,0,1,0-13.22,0Z"/><path class="cls-1" d="M61.22,114A6.61,6.61,0,1,0,48,114Z"/><path class="cls-1" d="M48,114a6.61,6.61,0,1,0-13.22,0Z"/><path class="cls-1" d="M34.78,114a6.61,6.61,0,1,0-13.22,0Z"/><path class="cls-1" d="M67.83,103.37a6.61,6.61,0,0,0-13.22,0Z"/><path class="cls-1" d="M54.61,103.37a6.61,6.61,0,0,0-13.22,0Z"/><path class="cls-1" d="M41.39,103.37a6.61,6.61,0,0,0-13.22,0Z"/><path class="cls-1" d="M67.83,92.75a6.61,6.61,0,1,0-13.22,0Z"/><path class="cls-1" d="M54.61,92.75a6.61,6.61,0,1,0-13.22,0Z"/><path class="cls-1" d="M41.39,92.75a6.61,6.61,0,1,0-13.22,0Z"/><path class="cls-1" d="M61.22,81.42a6.61,6.61,0,0,0-13.22,0Z"/><path class="cls-1" d="M48,81.42a6.61,6.61,0,0,0-13.22,0Z"/><path class="cls-1" d="M54.61,69.77a6.61,6.61,0,0,0-13.22,0Z"/><path d="M58.1,159a5.11,5.11,0,1,0,5.1-5.11A5.11,5.11,0,0,0,58.1,159Z"/><path class="cls-3" d="M14.32,129.32c.86,38.4,26.43,56.17,26.43,56.17L48,170.24V24C48,1.37,22.08,0,22.08,0,17.74,28.32,41.77,34.44,41.77,51.36c0,11.74-10.54,25.55-18.56,42.11-14,0-19-15.36-19-15.36C-9.11,110.05,13.32,128.52,14.32,129.32Z"/></g></g></svg>